{"title":"Ready (2011) - Blu-Ray - - 720p - x264 - AC3 - RedHeart-TDT","uid":6630487,"size":2346281558,"categoryP":"video","categoryS":"hd___movies","magnet":"?xt=urn:btih:88cf8d92cc90d69f3b3ee63d7d881147913d165d&amp;dn=Ready+%282011%29+-+Blu-Ray+-+-+720p+-+x264+-+AC3+-+RedHeart-TDT&amp;tr=udp%3A%2F%2Ftracker.openbittorrent.com%3A80&amp;tr=udp%3A%2F%2Fopen.demonii.com%3A1337&amp;tr=udp%3A%2F%2Ftracker.coppersurfer.tk%3A6969&amp;tr=udp%3A%2F%2Fexodus.desync.com%3A6969","seeders":0,"leechers":0,"uploader":"MWantedP","files":2,"time":1314316346,"description":"Ready (2011)- Blu-Ray- 720p - x264 - AC3 -=[RedHeart]=-\n\n\nGeneral\nComplete name                    : Ready (2011) - Blu-Ray - 720p - x264 - AC3 - [RedHeart].mkv\nFormat                           : Matroska\nFile size                        : 2.19 GiB\nDuration                         : 2h 25mn\nOverall bit rate                 : 2 156 Kbps\n\nVideo\nID                               : 1\nFormat                           : AVC\nFormat/Info                      : Advanced Video Codec\nFormat profile                   : &lt;a class=&quot;__cf_email__&quot; href=&quot;/cdn-cgi/l/email-protection&quot; data-cfemail=&quot;bcf4d5dbd4fcf08f928d&quot;&gt;[email&amp;#160;protected]&lt;/a&gt;&lt;script cf-hash='f9e31' type=&quot;text/javascript&quot;&gt;\n/* &lt;![CDATA[ */!function(){try{var t=&quot;currentScript&quot;in document?document.currentScript:function(){for(var t=document.getElementsByTagName(&quot;script&quot;),e=t.length;e--;)if(t[e].getAttribute(&quot;cf-hash&quot;))return t[e]}();if(t&amp;&amp;t.previousSibling){var e,r,n,i,c=t.previousSibling,a=c.getAttribute(&quot;data-cfemail&quot;);if(a){for(e=&quot;&quot;,r=parseInt(a.substr(0,2),16),n=2;a.length-n;n+=2)i=parseInt(a.substr(n,2),16)^r,e+=String.fromCharCode(i);e=document.createTextNode(e),c.parentNode.replaceChild(e,c)}}}catch(u){}}();/* ]]&gt; */&lt;/script&gt;\nFormat settings, CABAC           : Yes\nFormat settings, ReFrames        : 4 frames\nCodec ID                         : V_MPEG4/ISO/AVC\nDuration                         : 2h 25mn\nBit rate                         : 1 834 Kbps\nWidth                            : 1 280 pixels\nHeight                           : 544 pixels\nDisplay aspect ratio             : 2.35:1\nFrame rate                       : 24.000 fps\nStream size                      : 1.82 GiB (83%)\nWriting library                  : x264 core 115 r1995 c1e60b9\n\nAudio\nID                               : 2\nFormat                           : AC-3\nFormat/Info                      : Audio Coding 3\nMode extension                   : CM (complete main)\nCodec ID                         : A_AC3\nDuration                         : 2h 25mn\nBit rate mode                    : Constant\nBit rate                         : 320 Kbps\nChannel(s)                       : 6 channels\nChannel positions                : Front: L C R, Side: L R, LFE\nSampling rate                    : 48.0 KHz\nBit depth                        : 16 bits\nCompression mode                 : Lossy\nStream size                      : 332 MiB (15%)\nTitle                            : RedHeart\nLanguage                         : Hindi\n\n\n &lt;a href=&quot;\nhttp://img10.imageshack.us/img10/3640/vlcsnap2011082523h30m14.png&quot; rel=&quot;nofollow&quot; target=&quot;_NEW&quot;&gt;\nhttp://img10.imageshack.us/img10/3640/vlcsnap2011082523h30m14.png&lt;/a&gt; &lt;a href=&quot;\nhttp://img692.imageshack.us/img692/203/vlcsnap2011082523h54m42.png&quot; rel=&quot;nofollow&quot; target=&quot;_NEW&quot;&gt;\nhttp://img692.imageshack.us/img692/203/vlcsnap2011082523h54m42.png&lt;/a&gt; &lt;a href=&quot;\nhttp://img193.imageshack.us/img193/7606/vlcsnap2011082523h55m50.png&quot; rel=&quot;nofollow&quot; target=&quot;_NEW&quot;&gt;\nhttp://img193.imageshack.us/img193/7606/vlcsnap2011082523h55m50.png&lt;/a&gt; &lt;a href=&quot;\nhttp://img204.imageshack.us/img204/2390/vlcsnap2011082600h10m26.png&quot; rel=&quot;nofollow&quot; target=&quot;_NEW&quot;&gt;\nhttp://img204.imageshack.us/img204/2390/vlcsnap2011082600h10m26.png&lt;/a&gt; &lt;a href=&quot;\nhttp://img84.imageshack.us/img84/7870/vlcsnap2011082600h14m07.png&quot; rel=&quot;nofollow&quot; target=&quot;_NEW&quot;&gt;\nhttp://img84.imageshack.us/img84/7870/vlcsnap2011082600h14m07.png&lt;/a&gt; &lt;a href=&quot;\nhttp://img855.imageshack.us/img855/171/vlcsnap2011082600h15m39.png&quot; rel=&quot;nofollow&quot; target=&quot;_NEW&quot;&gt;\nhttp://img855.imageshack.us/img855/171/vlcsnap2011082600h15m39.png&lt;/a&gt; &lt;a href=&quot;\nhttp://img204.imageshack.us/img204/5366/vlcsnap2011082600h20m08.png&quot; rel=&quot;nofollow&quot; target=&quot;_NEW&quot;&gt;\nhttp://img204.imageshack.us/img204/5366/vlcsnap2011082600h20m08.png&lt;/a&gt; &lt;a href=&quot;\nhttp://img8.imageshack.us/img8/8919/vlcsnap2011082600h28m02.png&quot; rel=&quot;nofollow&quot; target=&quot;_NEW&quot;&gt;\nhttp://img8.imageshack.us/img8/8919/vlcsnap2011082600h28m02.png&lt;/a&gt; &lt;a href=&quot;\nhttp://img810.imageshack.us/img810/450/vlcsnap2011082600h37m32.png&quot; rel=&quot;nofollow&quot; target=&quot;_NEW&quot;&gt;\nhttp://img810.imageshack.us/img810/450/vlcsnap2011082600h37m32.png&lt;/a&gt; &lt;a href=&quot;\nhttp://img51.imageshack.us/img51/8122/vlcsnap2011082600h40m38.png&quot; rel=&quot;nofollow&quot; target=&quot;_NEW&quot;&gt;\nhttp://img51.imageshack.us/img51/8122/vlcsnap2011082600h40m38.png&lt;/a&gt; &lt;a href=&quot;\nhttp://img808.imageshack.us/img808/6608/vlcsnap2011082600h43m30.png&quot; rel=&quot;nofollow&quot; target=&quot;_NEW&quot;&gt;\nhttp://img808.imageshack.us/img808/6608/vlcsnap2011082600h43m30.png&lt;/a&gt; &lt;a href=&quot;\nhttp://img839.imageshack.us/img839/305/vlcsnap2011082600h43m42.png&quot; rel=&quot;nofollow&quot; target=&quot;_NEW&quot;&gt;\nhttp://img839.imageshack.us/img839/305/vlcsnap2011082600h43m42.png&lt;/a&gt; &lt;a href=&quot;\nhttp://img4.imageshack.us/img4/7193/vlcsnap2011082600h44m03.png&quot; rel=&quot;nofollow&quot; target=&quot;_NEW&quot;&gt;\nhttp://img4.imageshack.us/img4/7193/vlcsnap2011082600h44m03.png&lt;/a&gt; &lt;a href=&quot;\nhttp://img820.imageshack.us/img820/4051/vlcsnap2011082600h46m07.png&quot; rel=&quot;nofollow&quot; target=&quot;_NEW&quot;&gt;\nhttp://img820.imageshack.us/img820/4051/vlcsnap2011082600h46m07.png&lt;/a&gt; &lt;a href=&quot;\nhttp://img809.imageshack.us/img809/6734/vlcsnap2011082600h46m32.png&quot; rel=&quot;nofollow&quot; target=&quot;_NEW&quot;&gt;\nhttp://img809.imageshack.us/img809/6734/vlcsnap2011082600h46m32.png&lt;/a&gt; &lt;a href=&quot;\nhttp://img808.imageshack.us/img808/4787/vlcsnap2011082600h47m10.png&quot; rel=&quot;nofollow&quot; target=&quot;_NEW&quot;&gt;\nhttp://img808.imageshack.us/img808/4787/vlcsnap2011082600h47m10.png&lt;/a&gt;\n","torrent":{"xt":"urn:btih:88cf8d92cc90d69f3b3ee63d7d881147913d165d","amp;dn":"Ready+%282011%29+-+Blu-Ray+-+-+720p+-+x264+-+AC3+-+RedHeart-TDT","amp;tr":["udp%3A%2F%2Ftracker.openbittorrent.com%3A80","udp%3A%2F%2Fopen.demonii.com%3A1337","udp%3A%2F%2Ftracker.coppersurfer.tk%3A6969","udp%3A%2F%2Fexodus.desync.com%3A6969"],"infoHash":"88cf8d92cc90d69f3b3ee63d7d881147913d165d","infoHashBuffer":{"type":"Buffer","data":[136,207,141,146,204,144,214,159,59,62,230,61,125,136,17,71,145,61,22,93]},"announce":[],"urlList":[]}}